<?xml version="1.0" encoding="UTF-8"?>
<svg xmlns="http://www.w3.org/2000/svg" version="1.1" viewBox="0 0 512 408">
  <defs>
    <style>
      .cls-1 {
        fill: #c5a458;
      }
    </style>
  </defs>
  <!-- Generator: Adobe Illustrator 28.6.0, SVG Export Plug-In . SVG Version: 1.2.0 Build 578)  -->
  <g>
    <g id="Layer_1">
      <path class="cls-1" d="M99.9,263.2c.1-.8.2-1.5.3-2.3,2,1.3,3.4,3.9,6.4,3.1,1.7-.2.7-3.8,3.4-2.7,4.6-.1,9,1,14.7,3.9-2.5-6.2-4.5-11-6.4-15.7-17-41.9-19.9-84.8-8.3-128.5,8.4-31.5,20.3-61.4,41.6-86.7,5.2-6.2,11.2-11.7,18.1-16.2,17.6-11.4,32.6-9.7,47.5,4.9,13,12.7,21.8,28,29.3,44.2,9.6,20.5,18.4,41.5,34.6,58.1,6.8,7,13.3,14.4,17.7,23.1,12.3,24.5,9.5,48.8-1.9,72.7-9,19-22,35.3-36.6,50.9,3.9,1,6.1-1.6,8.5-3.2,21.5-13.8,44.1-25.2,69.2-31,41.5-9.6,79.2,8.2,94.9,46,9.8,23.7,3.9,45.5-12.3,64.4-20.8,24.3-48.4,36.7-79.1,42.5-40.6,7.6-79.6,2-116.4-17.2-1.7-.9-3.4-2.5-6.3-1.7,3.9,8.4,7.8,16.5,11.6,24.5-1.2,1.4-2,.8-2.8.4-41.2-23.1-77-52.2-102.3-92.8-1.6-2.5-3.2-5.1-4.5-7.8-2.2-5-4.8-8.6-10.9-10-6.6-1.5-9.6-7.2-8.2-14,.7-3.5.3-6.3-1.7-9Z"/>
      <path class="cls-1" d="M99.9,263.2c.1-.8.2-1.5.3-2.3,2,1.3,3.4,3.9,6.4,3.1,1.7-.2.7-3.8,3.4-2.7,4.6-.1,9,1,14.7,3.9-2.5-6.2-4.5-11-6.4-15.7-17-41.9-19.9-84.8-8.3-128.5,8.4-31.5,20.3-61.4,41.6-86.7,5.2-6.2,11.2-11.7,18.1-16.2,17.6-11.4,32.6-9.7,47.5,4.9,13,12.7,21.8,28,29.3,44.2,9.6,20.5,18.4,41.5,34.6,58.1,6.8,7,13.3,14.4,17.7,23.1,12.3,24.5,9.5,48.8-1.9,72.7-9,19-22,35.3-36.6,50.9,3.9,1,6.1-1.6,8.5-3.2,21.5-13.8,44.1-25.2,69.2-31,41.5-9.6,79.2,8.2,94.9,46,9.8,23.7,3.9,45.5-12.3,64.4-20.8,24.3-48.4,36.7-79.1,42.5-40.6,7.6-79.6,2-116.4-17.2-1.7-.9-3.4-2.5-6.3-1.7,3.9,8.4,7.8,16.5,11.6,24.5-1.2,1.4-2,.8-2.8.4-41.2-23.1-77-52.2-102.3-92.8-1.6-2.5-3.2-5.1-4.5-7.8-2.2-5-4.8-8.6-10.9-10-6.6-1.5-9.6-7.2-8.2-14,.7-3.5.3-6.3-1.7-9Z"/>
      <path class="cls-1" d="M99.9,263.2c.1-.8.2-1.5.3-2.3,2,1.3,3.4,3.9,6.4,3.1,1.7-.2.7-3.8,3.4-2.7,4.6-.1,9,1,14.7,3.9-2.5-6.2-4.5-11-6.4-15.7-17-41.9-19.9-84.8-8.3-128.5,8.4-31.5,20.3-61.4,41.6-86.7,5.2-6.2,11.2-11.7,18.1-16.2,17.6-11.4,32.6-9.7,47.5,4.9,13,12.7,21.8,28,29.3,44.2,9.6,20.5,18.4,41.5,34.6,58.1,6.8,7,13.3,14.4,17.7,23.1,12.3,24.5,9.5,48.8-1.9,72.7-9,19-22,35.3-36.6,50.9,3.9,1,6.1-1.6,8.5-3.2,21.5-13.8,44.1-25.2,69.2-31,41.5-9.6,79.2,8.2,94.9,46,9.8,23.7,3.9,45.5-12.3,64.4-20.8,24.3-48.4,36.7-79.1,42.5-40.6,7.6-79.6,2-116.4-17.2-1.7-.9-3.4-2.5-6.3-1.7,3.9,8.4,7.8,16.5,11.6,24.5-1.2,1.4-2,.8-2.8.4-41.2-23.1-77-52.2-102.3-92.8-1.6-2.5-3.2-5.1-4.5-7.8-2.2-5-4.8-8.6-10.9-10-6.6-1.5-9.6-7.2-8.2-14,.7-3.5.3-6.3-1.7-9Z"/>
      <path class="cls-1" d="M99.9,261.2c.1-.8.2-1.5.3-2.3,2,1.3,3.4,3.9,6.4,3.1,1.7-.2.7-3.8,3.4-2.7,4.6-.1,9,1,14.7,3.9-2.5-6.2-4.5-11-6.4-15.7-17-41.9-19.9-84.8-8.3-128.5,8.4-31.5,20.3-61.4,41.6-86.7,5.2-6.2,11.2-11.7,18.1-16.2,17.6-11.4,32.6-9.7,47.5,4.9,13,12.7,21.8,28,29.3,44.2,9.6,20.5,18.4,41.5,34.6,58.1,6.8,7,13.3,14.4,17.7,23.1,12.3,24.5,9.5,48.8-1.9,72.7-9,19-22,35.3-36.6,50.9,3.9,1,6.1-1.6,8.5-3.2,21.5-13.8,44.1-25.2,69.2-31,41.5-9.6,79.2,8.2,94.9,46,9.8,23.7,3.9,45.5-12.3,64.4-20.8,24.3-48.4,36.7-79.1,42.5-40.6,7.6-79.6,2-116.4-17.2-1.7-.9-3.4-2.5-6.3-1.7,3.9,8.4,7.8,16.5,11.6,24.5-1.2,1.4-2,.8-2.8.4-41.2-23.1-77-52.2-102.3-92.8-1.6-2.5-3.2-5.1-4.5-7.8-2.2-5-4.8-8.6-10.9-10-6.6-1.5-9.6-7.2-8.2-14,.7-3.5.3-6.3-1.7-9Z"/>
    </g>
  </g>
</svg>